<?xml version="1.0" standalone="no"?>
<!DOCTYPE svg PUBLIC "-//W3C//DTD SVG 20010904//EN"
 "http://www.w3.org/TR/2001/REC-SVG-20010904/DTD/svg10.dtd">
<svg version="1.0" xmlns="http://www.w3.org/2000/svg"
 width="178.000000pt" height="213.000000pt" viewBox="0 0 178.000000 213.000000"
 preserveAspectRatio="xMidYMid meet">

<g transform="translate(0.000000,213.000000) scale(0.100000,-0.100000)"
fill="#0000FF" stroke="none">
<path d="M0 1065 l0 -1065 609 0 608 1 12 27 12 27 -21 -25 c-23 -29 -26 -17
-5 20 17 30 19 44 4 35 -13 -9 8 42 54 128 19 36 38 63 41 60 16 -16 3 48 -20
92 -13 28 -30 82 -36 122 l-11 72 -61 39 c-34 22 -81 49 -105 62 -42 21 -46
21 -79 6 -19 -9 -32 -19 -29 -22 3 -3 -3 -14 -14 -25 -27 -27 -24 -37 26 -83
60 -53 102 -140 109 -226 3 -36 8 -87 11 -115 l6 -50 -18 35 c-9 19 -57 118
-105 220 -98 204 -149 296 -248 445 -92 138 -106 168 -130 281 -11 53 -27 105
-35 114 -8 9 -15 20 -15 25 0 5 -12 38 -26 74 -23 57 -26 74 -20 136 7 77 17
95 41 75 13 -11 15 -7 15 31 1 123 62 275 132 331 23 18 47 32 53 30 7 -1 20
7 30 18 10 11 28 20 41 20 13 0 25 4 28 9 3 4 25 8 48 7 38 -1 43 -3 41 -23
-2 -17 2 -23 17 -23 15 0 20 -7 20 -29 0 -17 5 -33 10 -36 6 -3 10 -11 10 -16
0 -6 -5 -7 -11 -4 -12 8 -51 -29 -42 -39 10 -9 61 -7 67 3 3 5 14 7 24 5 9 -3
55 4 102 15 l84 19 27 -21 c14 -12 34 -27 44 -32 14 -8 21 -36 32 -115 8 -58
14 -120 14 -139 -1 -38 -19 -67 -33 -53 -17 17 -215 -16 -246 -40 -14 -12 -13
-67 3 -69 5 -1 17 -1 25 0 12 2 13 0 1 -7 -7 -6 -10 -15 -6 -22 22 -36 101
-25 153 22 17 15 33 24 36 21 3 -4 6 1 6 11 0 9 -7 19 -15 22 -20 8 -11 20 21
28 15 4 33 14 41 22 23 22 33 7 34 -49 l1 -52 12 58 c13 59 27 84 44 74 17
-11 5 -184 -16 -225 -38 -76 -51 -109 -68 -182 -12 -53 -25 -83 -45 -102 -15
-16 -25 -28 -21 -28 3 0 -2 -6 -11 -12 -16 -12 -16 -19 8 -98 27 -93 36 -250
14 -250 -9 0 -10 23 -6 80 4 44 5 80 2 80 -2 0 -20 -27 -41 -60 -20 -33 -39
-58 -43 -56 -3 2 -12 -2 -19 -10 -7 -8 -9 -14 -5 -15 4 0 18 -2 30 -5 15 -2
21 0 18 9 -5 13 11 44 19 37 4 -5 26 -59 73 -185 8 -22 19 -97 25 -167 11
-139 4 -175 -48 -280 -13 -26 -24 -50 -24 -53 0 -3 16 -5 35 -5 31 0 35 3 44
37 6 21 11 47 11 57 0 36 14 6 20 -42 l5 -47 203 -3 202 -2 0 1065 0 1065
-890 0 -890 0 0 -1065z m1220 346 c0 -13 -24 -31 -43 -31 -17 0 -17 1 -3 16 9
8 16 19 16 24 0 5 7 7 15 4 8 -4 15 -9 15 -13z m-140 -836 c17 -9 30 -18 30
-21 0 -4 -59 23 -69 32 -10 9 13 3 39 -11z m-6 -24 c4 -5 -3 -7 -14 -4 -23 6
-26 13 -6 13 8 0 17 -4 20 -9z m100 -32 c20 -12 36 -23 36 -25 0 -5 -44 18
-70 35 -27 19 -2 11 34 -10z m17 -40 c33 -22 58 -43 55 -46 -5 -6 -146 85
-146 94 0 9 30 -6 91 -48z m-61 -4 c11 -2 41 -18 67 -36 94 -65 101 -79 57
-120 -14 -13 -39 -48 -56 -77 -22 -39 -33 -50 -39 -41 -18 34 23 102 66 108 6
1 10 12 10 25 0 13 3 28 8 32 12 12 8 24 -8 24 -8 0 -15 -9 -15 -20 0 -11 -5
-20 -11 -20 -6 0 -8 9 -4 20 3 11 3 20 -2 20 -4 0 -33 24 -63 52 -30 28 -49
48 -43 44 7 -4 22 -9 33 -11z"/>
<path d="M705 1501 c-19 -8 -19 -8 3 -20 l23 -12 -23 -18 -22 -18 23 -8 c12
-4 37 -4 55 -1 27 5 32 3 31 -12 0 -9 -4 -23 -9 -30 -11 -18 38 -63 61 -56 43
14 66 30 79 56 8 15 21 28 29 28 21 0 19 26 -4 49 -30 30 -204 60 -246 42z"/>
<path d="M556 1424 c-7 -19 11 -57 25 -49 15 10 11 65 -5 65 -8 0 -17 -7 -20
-16z"/>
<path d="M838 1217 c-50 -47 -58 -68 -51 -139 6 -70 14 -76 55 -40 11 9 25 12
40 7 13 -4 43 -13 68 -20 l45 -14 -35 0 c-47 -2 -59 -11 -49 -38 7 -20 15 -23
70 -23 53 0 60 2 49 15 -7 8 -9 15 -4 15 5 0 0 7 -10 15 -18 14 -18 15 9 25
16 6 52 12 82 13 29 1 52 6 50 10 -1 5 -67 10 -146 12 -132 3 -145 5 -167 26
-31 29 -30 44 5 70 31 22 43 51 34 75 -7 19 -16 18 -45 -9z"/>
<path d="M946 1110 c19 -36 64 -43 64 -10 0 15 -7 20 -24 20 -14 0 -28 5 -31
10 -15 24 -22 7 -9 -20z"/>
<path d="M703 963 c4 -6 26 -26 50 -44 28 -23 36 -26 22 -10 -23 26 -82 71
-72 54z"/>
<path d="M1220 954 c0 -5 -25 -31 -56 -57 -62 -52 -96 -59 -148 -32 -21 11
-42 14 -75 9 -53 -8 -80 -12 -101 -13 -8 -1 23 -26 69 -57 47 -30 91 -52 98
-49 8 2 12 1 9 -4 -8 -13 23 -23 47 -15 13 4 17 2 13 -5 -4 -7 -1 -9 8 -5 8 3
17 12 20 20 3 9 11 12 17 8 7 -4 9 -3 6 3 -3 5 7 24 24 42 16 18 27 37 24 42
-4 5 -3 9 2 9 11 0 56 100 49 107 -3 4 -6 2 -6 -3z"/>
<path d="M1159 782 c-20 -37 -40 -66 -45 -65 -6 1 -11 -9 -12 -23 -1 -18 3
-24 19 -24 11 0 18 4 15 9 -3 5 5 28 19 52 33 60 57 119 48 119 -5 0 -24 -31
-44 -68z"/>
<path d="M1226 597 c3 -10 9 -15 12 -12 3 3 0 11 -7 18 -10 9 -11 8 -5 -6z"/>
<path d="M1257 164 c-15 -30 -27 -60 -27 -67 0 -6 14 17 30 52 17 35 29 65 27
67 -2 2 -15 -21 -30 -52z"/>
<path d="M1245 79 c-4 -6 -5 -12 -2 -15 2 -3 7 2 10 11 7 17 1 20 -8 4z"/>
</g>
</svg>
